[Header]
FileType HTR
DataType HTRS
FileVersion 1
NumSegments 64
NumFrames 3
DataFrameRate 30
EulerRotationOrder ZYX
CalibrationUnits mm
RotationUnits Degrees
GlobalAxisofGravity Y
BoneLengthAxis Y
ScaleFactor 1.0
[SegmentNames&Hierarchy]
Hips	GLOBAL
Spine	Hips
Spine1	Spine
Spine2	Spine1
Neck	Spine2
Head	Neck
LeftEye	Head
RightEye	Head
LeftShoulder	Spine2
LeftArm	LeftShoulder
LeftForeArm	LeftArm
LeftHand	LeftForeArm
LeftHandThumb1	LeftHand
LeftHandThumb2	LeftHandThumb1
LeftHandThumb3	LeftHandThumb2
LeftHandThumb4	LeftHandThumb3
LeftHandIndex1	LeftHand
LeftHandIndex2	LeftHandIndex1
LeftHandIndex3	LeftHandIndex2
LeftHandIndex4	LeftHandIndex3
LeftHandMiddle1	LeftHand
LeftHandMiddle2	LeftHandMiddle1
LeftHandMiddle3	LeftHandMiddle2
LeftHandMiddle4	LeftHandMiddle3
LeftHandRing1	LeftHand
LeftHandRing2	LeftHandRing1
LeftHandRing3	LeftHandRing2
LeftHandRing4	LeftHandRing3
LeftHandPinky1	LeftHand
LeftHandPinky2	LeftHandPinky1
LeftHandPinky3	LeftHandPinky2
LeftHandPinky4	LeftHandPinky3
RightShoulder	Spine2
RightArm	RightShoulder
RightForeArm	RightArm
RightHand	RightForeArm
RightHandPinky1	RightHand
RightHandPinky2	RightHandPinky1
RightHandPinky3	RightHandPinky2
RightHandPinky4	RightHandPinky3
RightHandRing1	RightHand
RightHandRing2	RightHandRing1
RightHandRing3	RightHandRing2
RightHandRing4	RightHandRing3
RightHandMiddle1	RightHand
RightHandMiddle2	RightHandMiddle1
RightHandMiddle3	RightHandMiddle2
RightHandMiddle4	RightHandMiddle3
RightHandIndex1	RightHand
RightHandIndex2	RightHandIndex1
RightHandIndex3	RightHandIndex2
RightHandIndex4	RightHandIndex3
RightHandThumb1	RightHand
RightHandThumb2	RightHandThumb1
RightHandThumb3	RightHandThumb2
RightHandThumb4	RightHandThumb3
LeftUpLeg	Hips
LeftLeg	LeftUpLeg
LeftFoot	LeftLeg
LeftToeBase	LeftFoot
RightUpLeg	Hips
RightLeg	RightUpLeg
RightFoot	RightLeg
RightToeBase	RightFoot
[BasePosition]
Hips	0	0	0	0	0	0	1
Spine	0	0	0	0	0	0	1
Spine1	0	0	0	0	0	0	1
Spine2	0	0	0	0	0	0	1
Neck	0	0	0	0	0	0	1
Head	0	0	0	0	0	0	1
LeftEye	0	0	0	0	0	0	1
RightEye	0	0	0	0	0	0	1
LeftShoulder	0	0	0	0	0	0	1
LeftArm	0	0	0	0	0	0	1
LeftForeArm	0	0	0	0	0	0	1
LeftHand	0	0	0	0	0	0	1
LeftHandThumb1	0	0	0	0	0	0	1
LeftHandThumb2	0	0	0	0	0	0	1
LeftHandThumb3	0	0	0	0	0	0	1
LeftHandThumb4	0	0	0	0	0	0	1
LeftHandIndex1	0	0	0	0	0	0	1
LeftHandIndex2	0	0	0	0	0	0	1
LeftHandIndex3	0	0	0	0	0	0	1
LeftHandIndex4	0	0	0	0	0	0	1
LeftHandMiddle1	0	0	0	0	0	0	1
LeftHandMiddle2	0	0	0	0	0	0	1
LeftHandMiddle3	0	0	0	0	0	0	1
LeftHandMiddle4	0	0	0	0	0	0	1
LeftHandRing1	0	0	0	0	0	0	1
LeftHandRing2	0	0	0	0	0	0	1
LeftHandRing3	0	0	0	0	0	0	1
LeftHandRing4	0	0	0	0	0	0	1
LeftHandPinky1	0	0	0	0	0	0	1
LeftHandPinky2	0	0	0	0	0	0	1
LeftHandPinky3	0	0	0	0	0	0	1
LeftHandPinky4	0	0	0	0	0	0	1
RightShoulder	0	0	0	0	0	0	1
RightArm	0	0	0	0	0	0	1
RightForeArm	0	0	0	0	0	0	1
RightHand	0	0	0	0	0	0	1
RightHandPinky1	0	0	0	0	0	0	1
RightHandPinky2	0	0	0	0	0	0	1
RightHandPinky3	0	0	0	0	0	0	1
RightHandPinky4	0	0	0	0	0	0	1
RightHandRing1	0	0	0	0	0	0	1
RightHandRing2	0	0	0	0	0	0	1
RightHandRing3	0	0	0	0	0	0	1
RightHandRing4	0	0	0	0	0	0	1
RightHandMiddle1	0	0	0	0	0	0	1
RightHandMiddle2	0	0	0	0	0	0	1
RightHandMiddle3	0	0	0	0	0	0	1
RightHandMiddle4	0	0	0	0	0	0	1
RightHandIndex1	0	0	0	0	0	0	1
RightHandIndex2	0	0	0	0	0	0	1
RightHandIndex3	0	0	0	0	0	0	1
RightHandIndex4	0	0	0	0	0	0	1
RightHandThumb1	0	0	0	0	0	0	1
RightHandThumb2	0	0	0	0	0	0	1
RightHandThumb3	0	0	0	0	0	0	1
RightHandThumb4	0	0	0	0	0	0	1
LeftUpLeg	0	0	0	0	0	0	1
LeftLeg	0	0	0	0	0	0	1
LeftFoot	0	0	0	0	0	0	1
LeftToeBase	0	0	0	0	0	0	1
RightUpLeg	0	0	0	0	0	0	1
RightLeg	0	0	0	0	0	0	1
RightFoot	0	0	0	0	0	0	1
RightToeBase	0	0	0	0	0	0	1
[Hips]
27	-1510.010254	932.8463745	8.178613663	7.865931988	-60.55948639	-1.997259736	1.0
28	-1567.076172	943.6091309	5.98123455	9.132225037	-60.5041008	-3.795968294	1.0
29	-1623.310425	959.4301758	5.154209614	9.490326881	-61.45553207	-4.532149792	1.0
[Spine]
27	0	101.8159943	1.315000057	5.533025265	2.548198462	3.152303934	1.0
28	0	101.8159943	1.315000057	5.723904133	3.157322884	3.616938829	1.0
29	0	101.8159943	1.315000057	5.830479622	4.265386581	3.362656116	1.0
[Spine1]
27	0	100.8349991	-10.00800037	4.106397629	3.352449656	1.258900642	1.0
28	0	100.8349991	-10.00800037	4.197626114	3.450791836	1.416413665	1.0
29	0	100.8349991	-10.00800037	4.209035873	3.864822388	1.199172497	1.0
[Spine2]
27	0	91	-13.73399925	4.07690239	3.382347107	1.291293979	1.0
28	0	91	-13.73399925	4.171054363	3.474527359	1.44522965	1.0
29	0	91	-13.73399925	4.186729431	3.880630732	1.224113941	1.0
[Neck]
27	0	166.7169952	-25.16200066	3.836848259	5.989169598	1.164405823	1.0
28	0	166.7169952	-25.16200066	3.810876846	5.817782879	1.385885	1.0
29	0	166.7169952	-25.16200066	3.941505194	5.615163326	1.752838969	1.0
[Head]
27	0	96.17900085	16.84999847	-15.36678886	34.57416153	-18.55578613	1.0
28	0	96.17900085	16.84999847	-15.1503191	33.95704269	-17.72499657	1.0
29	0	96.17900085	16.84999847	-14.04179001	33.50046158	-15.93288326	1.0
[LeftEye]
27	30.6760006	64.09500122	92.83599854	0	0	0	1.0
28	30.6760006	64.09500122	92.83599854	0	0	0	1.0
29	30.6760006	64.09500122	92.83599854	0	0	0	1.0
[RightEye]
27	-30.6760006	64.09500122	92.83499908	0	0	0	1.0
28	-30.6760006	64.09500122	92.83499908	0	0	0	1.0
29	-30.6760006	64.09500122	92.83499908	0	0	0	1.0
[LeftShoulder]
27	45.70400238	109.4599991	-26.28000069	0.1485955417	-4.795107365	-8.796744347	1.0
28	45.70400238	109.4599991	-26.28000069	0.2930580378	-3.949546099	-8.58147049	1.0
29	45.70400238	109.4599991	-26.28000069	0.4448032677	-2.695378542	-8.367417336	1.0
[LeftArm]
27	105.923996	-5.24600029	-22.32099915	15.58649349	-15.7737627	-69.59594727	1.0
28	105.923996	-5.24600029	-22.32099915	16.70146179	-15.5652523	-70.75860596	1.0
29	105.923996	-5.24600029	-22.32099915	17.66786575	-14.79868317	-71.18022156	1.0
[LeftForeArm]
27	278.414978	-0.0009999999311	0	1.692684691e-06	-33.78107452	-0.0001988943404	1.0
28	278.414978	-0.0009999999311	0	-8.415968296e-06	-34.48221207	-0.0001981827372	1.0
29	278.414978	-0.0009999999311	0	-1.169249663e-05	-34.66995621	-0.0002038633538	1.0
[LeftHand]
27	283.2879944	0	0	7.329981327	-21.05831718	4.346681118	1.0
28	283.2879944	0	0	7.533014297	-24.97629929	5.351855278	1.0
29	283.2879944	0	0	8.227473259	-26.41942215	5.80804348	1.0
[LeftHandThumb1]
27	24.6609993	-15.75	26.8239994	30.58115005	-20.32058144	11.29641056	1.0
28	24.6609993	-15.75	26.8239994	30.58115005	-20.32058144	11.29641056	1.0
29	24.6609993	-15.75	26.8239994	30.58115005	-20.32058144	11.29641056	1.0
[LeftHandThumb2]
27	32.29800034	-18.64699936	18.64699936	11.10111523	16.10312653	-1.797830462	1.0
28	32.29800034	-18.64699936	18.64699936	10.68963432	16.54854202	-1.46496284	1.0
29	32.29800034	-18.64699936	18.64699936	9.97376442	18.49020576	-1.263252378	1.0
[LeftHandThumb3]
27	26.52600098	-15.31499958	15.31499958	-15.08037853	8.178429604	9.989253998	1.0
28	26.52600098	-15.31499958	15.31499958	-15.04257679	8.267149925	9.962329865	1.0
29	26.52600098	-15.31499958	15.31499958	-15.01813221	8.324480057	9.944917679	1.0
[LeftHandThumb4]
27	19.54599953	-11.28499985	11.28499985	0	0	0	1.0
28	19.54599953	-11.28499985	11.28499985	0	0	0	1.0
29	19.54599953	-11.28499985	11.28499985	0	0	0	1.0
[LeftHandIndex1]
27	91.09299469	-5.170999527	22.60099792	-0.997042954	-6.148427963	-20.42367172	1.0
28	91.09299469	-5.170999527	22.60099792	-0.9362885952	-6.28514719	-19.5337944	1.0
29	91.09299469	-5.170999527	22.60099792	-0.9437245727	-6.35541153	-19.5355854	1.0
[LeftHandIndex2]
27	36.76399994	0	0	-0.7120214701	2.794528246	-28.58434677	1.0
28	36.76399994	0	0	-0.7137104869	2.797589064	-28.61872292	1.0
29	36.76399994	0	0	-0.716804266	2.803216934	-28.68186378	1.0
[LeftHandIndex3]
27	28.83100128	0	0	-0.2919753492	1.823939085	-18.18815231	1.0
28	28.83100128	0	0	-0.2930859625	1.827309489	-18.22286034	1.0
29	28.83100128	0	0	-0.295121789	1.833482265	-18.28659439	1.0
[LeftHandIndex4]
27	23.92700005	0	0	0	0	0	1.0
28	23.92700005	0	0	0	0	0	1.0
29	23.92700005	0	0	0	0	0	1.0
[LeftHandMiddle1]
27	95.33399963	0	0	-2.242188454	2.389000893	-33.8331871	1.0
28	95.33399963	0	0	-2.247953176	2.291539907	-33.90042496	1.0
29	95.33399963	0	0	-2.315964937	2.145765781	-34.64535141	1.0
[LeftHandMiddle2]
27	36.98199844	0	0	-0.5451869369	2.464040518	-24.94814682	1.0
28	36.98199844	0	0	-0.5477427244	2.469530582	-25.00758362	1.0
29	36.98199844	0	0	-0.55591923	2.486955166	-25.19656563	1.0
[LeftHandMiddle3]
27	29.50900078	0	0	-0.3790626228	2.070129156	-20.7508564	1.0
28	29.50900078	0	0	-0.3812227547	2.07584691	-20.81083679	1.0
29	29.50900078	0	0	-0.3881800175	2.094012976	-21.00167465	1.0
[LeftHandMiddle4]
27	28.3390007	0	0	0	0	0	1.0
28	28.3390007	0	0	0	0	0	1.0
29	28.3390007	0	0	0	0	0	1.0
[LeftHandRing1]
27	91.04499817	-0.4390000105	-18.65100098	-1.958033681	3.91331172	-30.61790085	1.0
28	91.04499817	-0.4390000105	-18.65100098	-1.936381578	4.011779785	-30.37190819	1.0
29	91.04499817	-0.4390000105	-18.65100098	-1.983007073	3.944968224	-30.90233231	1.0
[LeftHandRing2]
27	31.54000092	0	0	-0.8485762477	3.031379223	-31.27054787	1.0
28	31.54000092	0	0	-0.8526214957	3.03799963	-31.34685135	1.0
29	31.54000092	0	0	-0.8625032902	3.054121494	-31.53261948	1.0
[LeftHandRing3]
27	29.37700081	0	0	-0.9444717169	3.183725357	-33.03956985	1.0
28	29.37700081	0	0	-0.9487772584	3.190317154	-33.11697006	1.0
29	29.37700081	0	0	-0.9592993855	3.20636034	-33.30550766	1.0
[LeftHandRing4]
27	26.47500038	0	0	0	0	0	1.0
28	26.47500038	0	0	0	0	0	1.0
29	26.47500038	0	0	0	0	0	1.0
[LeftHandPinky1]
27	80.77799988	-4.887000084	-38.06099701	-1.843380213	3.657922506	-29.12356949	1.0
28	80.77799988	-4.887000084	-38.06099701	-1.844230771	3.933313847	-29.12934303	1.0
29	80.77799988	-4.887000084	-38.06099701	-1.851523399	4.054896355	-29.21261787	1.0
[LeftHandPinky2]
27	36	0	0	-0.458311677	2.268079758	-22.8436451	1.0
28	36	0	0	-0.4547143579	2.259611607	-22.75332069	1.0
29	36	0	0	-0.4570943713	2.265245676	-22.8133564	1.0
[LeftHandPinky3]
27	21.14200211	0	0	-0.5261156559	2.422675848	-24.50099182	1.0
28	21.14200211	0	0	-0.5207725763	2.410956383	-24.37451553	1.0
29	21.14200211	0	0	-0.5214665532	2.412478685	-24.39090729	1.0
[LeftHandPinky4]
27	19.75699997	0	0	0	0	0	1.0
28	19.75699997	0	0	0	0	0	1.0
29	19.75699997	0	0	0	0	0	1.0
[RightShoulder]
27	-45.70000076	109.4620056	-26.28000069	1.704391837	3.63205266	10.09224892	1.0
28	-45.70000076	109.4620056	-26.28000069	1.242037416	4.218944073	10.1636858	1.0
29	-45.70000076	109.4620056	-26.28000069	0.6620128751	4.867145061	10.17300797	1.0
[RightArm]
27	-105.9280014	-5.248000145	-22.32099915	21.72010422	3.52761507	64.87818146	1.0
28	-105.9280014	-5.248000145	-22.32099915	24.16579437	5.268083096	62.9270668	1.0
29	-105.9280014	-5.248000145	-22.32099915	26.44510841	7.671544075	61.20833969	1.0
[RightForeArm]
27	-278.414978	0	0	-6.069458323e-07	6.812691689	3.024390935e-05	1.0
28	-278.414978	0	0	-2.081118993e-07	7.025278568	2.029629286e-05	1.0
29	-278.414978	0	0	2.895902981e-06	7.693374157	6.00507019e-06	1.0
[RightHand]
27	-283.2879944	0	0.0009999999311	-1.590349078	-1.891874194	-6.438605309	1.0
28	-283.2879944	0	0.0009999999311	-1.478170037	-2.512053967	-9.108722687	1.0
29	-283.2879944	0	0.0009999999311	0.2808972895	-3.247465611	-12.6080513	1.0
[RightHandPinky1]
27	-80.76699829	-4.885000229	-38.06000137	-2.251093626	-3.683964968	36.78741455	1.0
28	-80.76699829	-4.885000229	-38.06000137	-2.259526253	-3.861409187	36.90144348	1.0
29	-80.76699829	-4.885000229	-38.06000137	-2.281808376	-4.315042496	37.11482239	1.0
[RightHandPinky2]
27	-36	0	0.0009999999311	-0.3866228461	-1.854005098	23.57627296	1.0
28	-36	0	0.0009999999311	-0.388433516	-1.858150721	23.63223076	1.0
29	-36	0	0.0009999999311	-0.3914517462	-1.865034819	23.72515488	1.0
[RightHandPinky3]
27	-21.14200211	0	0	-0.1667774469	-1.232818365	15.40842342	1.0
28	-21.14200211	0	0	-0.1679952592	-1.237225771	15.4649229	1.0
29	-21.14200211	0	0	-0.1700498313	-1.244613051	15.55963326	1.0
[RightHandPinky4]
27	-19.75699997	0	0	0	0	0	1.0
28	-19.75699997	0	0	0	0	0	1.0
29	-19.75699997	0	0	0	0	0	1.0
[RightHandRing1]
27	-91.03599548	-0.4390000105	-18.65100098	-1.983919144	-6.738548756	33.47947693	1.0
28	-91.03599548	-0.4390000105	-18.65100098	-2.030443907	-6.804370403	34.07285309	1.0
29	-91.03599548	-0.4390000105	-18.65100098	-2.104265451	-6.97191143	35.0096283	1.0
[RightHandRing2]
27	-31.54000092	0	0	-0.3690859675	-1.813278079	23.0086422	1.0
28	-31.54000092	0	0	-0.3696506023	-1.814605594	23.02649307	1.0
29	-31.54000092	0	0	-0.3706785738	-1.817016244	23.05886078	1.0
[RightHandRing3]
27	-29.37700081	0	0	-0.2646735013	-1.544560552	19.44585228	1.0
28	-29.37700081	0	0	-0.2651436031	-1.545912623	19.46352386	1.0
29	-29.37700081	0	0	-0.2659992874	-1.548332334	19.4951973	1.0
[RightHandRing4]
27	-26.47500038	0	0	0	0	0	1.0
28	-26.47500038	0	0	0	0	0	1.0
29	-26.47500038	0	0	0	0	0	1.0
[RightHandMiddle1]
27	-95.32500458	0	0	-1.838359118	-3.573987246	31.57652855	1.0
28	-95.32500458	0	0	-1.89110446	-3.741980076	32.26103973	1.0
29	-95.32500458	0	0	-1.958407044	-4.018352509	33.12838745	1.0
[RightHandMiddle2]
27	-36.98199844	0	0	-0.2425076514	-1.48031044	18.60609627	1.0
28	-36.98199844	0	0	-0.2425457537	-1.480422497	18.607584	1.0
29	-36.98199844	0	0	-0.2427570969	-1.481055975	18.61583519	1.0
[RightHandMiddle3]
27	-29.50900078	0	0	-0.08761159331	-0.8994703293	11.15154457	1.0
28	-29.50900078	0	0	-0.08763707429	-0.8995851874	11.15300751	1.0
29	-29.50900078	0	0	-0.08776620775	-0.9002321959	11.16117954	1.0
[RightHandMiddle4]
27	-28.3390007	0	0.0009999999311	0	0	0	1.0
28	-28.3390007	0	0.0009999999311	0	0	0	1.0
29	-28.3390007	0	0.0009999999311	0	0	0	1.0
[RightHandIndex1]
27	-91.08300018	-5.167999744	22.60099792	-1.275675297	0.3140544593	26.52419662	1.0
28	-91.08300018	-5.167999744	22.60099792	-1.31757915	0.0943223834	27.4337368	1.0
29	-91.08300018	-5.167999744	22.60099792	-1.379486203	-0.1584586501	28.5983181	1.0
[RightHandIndex2]
27	-36.76399994	0	0	-0.1026760712	-0.9707027078	12.07518005	1.0
28	-36.76399994	0	0	-0.102890417	-0.9716960192	12.0877409	1.0
29	-36.76399994	0	0	-0.1031466648	-0.9729033113	12.1029892	1.0
[RightHandIndex3]
27	-28.83100128	0	0	-0.1068169624	-0.9898896217	12.31756496	1.0
28	-28.83100128	0	0	-0.107035093	-0.9908874631	12.33021069	1.0
29	-28.83100128	0	0	-0.1073011011	-0.9920986891	12.34554768	1.0
[RightHandIndex4]
27	-23.92700005	0	0	0	0	0	1.0
28	-23.92700005	0	0	0	0	0	1.0
29	-23.92700005	0	0	0	0	0	1.0
[RightHandThumb1]
27	-24.64799881	-15.72700024	26.82600021	-0.1902875453	0.8218618631	0.3671384752	1.0
28	-24.64799881	-15.72700024	26.82600021	-0.1902875453	0.8218618631	0.3671384752	1.0
29	-24.64799881	-15.72700024	26.82600021	-0.1902875453	0.8218618631	0.3671384752	1.0
[RightHandThumb2]
27	-32.29800034	-18.64699936	18.64699936	17.77205086	-3.052417755	-17.92784691	1.0
28	-32.29800034	-18.64699936	18.64699936	17.78159523	-3.20737648	-17.84206581	1.0
29	-32.29800034	-18.64699936	18.64699936	17.861269	-3.61518693	-17.89239311	1.0
[RightHandThumb3]
27	-26.52600098	-15.31399918	15.31399918	-0.7183095217	9.234519958	-24.33419991	1.0
28	-26.52600098	-15.31399918	15.31399918	-0.9062100649	9.672388077	-24.46935844	1.0
29	-26.52600098	-15.31399918	15.31399918	-1.312758803	10.60913849	-24.81481361	1.0
[RightHandThumb4]
27	-19.54599953	-11.28499985	11.28499985	0	0	0	1.0
28	-19.54599953	-11.28499985	11.28499985	0	0	0	1.0
29	-19.54599953	-11.28499985	11.28499985	0	0	0	1.0
[LeftUpLeg]
27	82.07800293	-67.51699829	-15.99599934	-6.717438221	0.6005413532	21.11519432	1.0
28	82.07800293	-67.51699829	-15.99599934	-14.32076073	-2.096521854	19.83242989	1.0
29	82.07800293	-67.51699829	-15.99599934	-20.78195572	-2.19764328	16.91512489	1.0
[LeftLeg]
27	0	-443.7049866	2.845999956	53.33286285	-4.612524986	-6.235043526	1.0
28	0	-443.7049866	2.845999956	64.96478271	-3.107201815	-7.106915951	1.0
29	0	-443.7049866	2.845999956	70.96762848	-2.808244705	-8.710262299	1.0
[LeftFoot]
27	0	-444.2789917	-29.8219986	11.45351887	-0.07346339524	-4.317815781	1.0
28	0	-444.2789917	-29.8219986	11.97725487	0.6068021059	-1.884108782	1.0
29	0	-444.2789917	-29.8219986	8.166163445	-0.2187919766	-1.244772673	1.0
[LeftToeBase]
27	0	-87.28699493	107.1060028	-13.96026707	-0.322987318	-0.7449747324	1.0
28	0	-87.28699493	107.1060028	-10.97932529	0.09563799948	0.2225662321	1.0
29	0	-87.28699493	107.1060028	-10.89549351	2.416956158e-05	-1.627031816e-05	1.0
[RightUpLeg]
27	-82.07800293	-67.51699829	-15.99599934	-45.13262939	-9.309495926	-0.5809441805	1.0
28	-82.07800293	-67.51699829	-15.99599934	-41.54143143	-8.908041954	1.82049799	1.0
29	-82.07800293	-67.51699829	-15.99599934	-36.5438385	-8.194928169	3.512215137	1.0
[RightLeg]
27	0	-443.7049866	2.861999989	43.50848007	0.955380559	0.9875641465	1.0
28	0	-443.7049866	2.861999989	44.12696457	0.641982913	0.8316575885	1.0
29	0	-443.7049866	2.861999989	41.90291214	0.7689219117	0.9615315199	1.0
[RightFoot]
27	0	-444.2770081	-29.83799934	-4.212545872	-0.3989695013	2.410036564	1.0
28	0	-444.2770081	-29.83799934	-8.342758179	-0.3908387423	0.729955256	1.0
29	0	-444.2770081	-29.83799934	-10.96629524	-0.5235601068	-0.8962489963	1.0
[RightToeBase]
27	0	-87.28699493	107.1060028	-8.623440742	-8.926071132e-06	2.932931466e-06	1.0
28	0	-87.28699493	107.1060028	-8.756119728	7.451691886e-07	7.979966199e-07	1.0
29	0	-87.28699493	107.1060028	-8.818439484	-2.179657031e-06	5.043632427e-07	1.0
[EndOfFile]
